<?xml version="1.0" encoding="UTF-8" standalone="no"?>
<svg
   height="16"
   viewBox="0 0 16 16"
   width="16"
   version="1.1"
   id="svg10"
   sodipodi:docname="animated_shape_2d.svg"
   inkscape:version="1.1.2 (0a00cf5339, 2022-02-04)"
   xmlns:inkscape="http://www.inkscape.org/namespaces/inkscape"
   xmlns:sodipodi="http://sodipodi.sourceforge.net/DTD/sodipodi-0.dtd"
   xmlns="http://www.w3.org/2000/svg"
   xmlns:svg="http://www.w3.org/2000/svg">
  <defs
     id="defs14" />
  <sodipodi:namedview
     id="namedview12"
     pagecolor="#ffffff"
     bordercolor="#666666"
     borderopacity="1.0"
     inkscape:pageshadow="2"
     inkscape:pageopacity="0.0"
     inkscape:pagecheckerboard="0"
     showgrid="false"
     inkscape:zoom="31.302178"
     inkscape:cx="7.2518915"
     inkscape:cy="7.6192781"
     inkscape:window-width="1920"
     inkscape:window-height="1080"
     inkscape:window-x="0"
     inkscape:window-y="0"
     inkscape:window-maximized="1"
     inkscape:current-layer="g8" />
  <g
     fill="#8da5f3"
     id="g8"
     style="display:inline">
    <path
       d="M 7,0 A 2,2 0 0 0 5,2 h 7 a 2,2 0 0 1 2,2 v 6 A 2,2 0 0 0 16,8 V 2 A 2,2 0 0 0 14,0 Z"
       fill-opacity="0.4"
       id="path2"
       style="fill:#adadad;fill-opacity:1" />
    <path
       d="M 5,2 A 2,2 0 0 0 3,4 h 7 a 2,2 0 0 1 2,2 v 7 a 2,2 0 0 0 2,-2 V 4 A 2,2 0 0 0 12,2 Z"
       fill-opacity="0.6"
       id="path4"
       style="fill:#c2c2c2;fill-opacity:1" />
    <path
       d="M 3,4 C 1.8954305,4 1,4.8954305 1,6 v 7 c 0,1.104569 0.8954305,2 2,2 h 7 c 1.104569,0 2,-0.895431 2,-2 V 6 C 12,4.8954305 11.104569,4 10,4 Z"
       id="path6"
       style="display:inline;opacity:1;fill:#939292;fill-opacity:1;stroke:#ffffff;stroke-opacity:1"
       sodipodi:nodetypes="sssssssss" />
  </g>
</svg>
